TITLE ""
FILE "Disc1Track62.mp3" MP3
  TRACK 01 AUDIO
    TITLE "Disc1Track62_01"
    INDEX 01 00:00:00
  TRACK 02 AUDIO
    TITLE "Disc1Track62_02"
    INDEX 01 00:01:22
  TRACK 03 AUDIO
    TITLE "Disc1Track62_03"
    INDEX 01 00:03:28
  TRACK 04 AUDIO
    TITLE "Disc1Track62_04"
    INDEX 01 00:04:63
  TRACK 05 AUDIO
    TITLE "Disc1Track62_05"
    INDEX 01 00:05:25
  TRACK 06 AUDIO
    TITLE "Disc1Track62_06"
    INDEX 01 00:06:60
  TRACK 07 AUDIO
    TITLE "Disc1Track62_07"
    INDEX 01 00:08:53
  TRACK 08 AUDIO
    TITLE "Disc1Track62_08"
    INDEX 01 00:10:09
  TRACK 09 AUDIO
    TITLE "Disc1Track62_09"
    INDEX 01 00:15:69
  TRACK 10 AUDIO
    TITLE "Disc1Track62_10"
    INDEX 01 00:16:27
  TRACK 11 AUDIO
    TITLE "Disc1Track62_11"
    INDEX 01 00:17:62
  TRACK 12 AUDIO
    TITLE "Disc1Track62_12"
    INDEX 01 00:18:73
  TRACK 13 AUDIO
    TITLE "Disc1Track62_13"
    INDEX 01 00:20:31
  TRACK 14 AUDIO
    TITLE "Disc1Track62_14"
    INDEX 01 00:26:18
  TRACK 15 AUDIO
    TITLE "Disc1Track62_15"
    INDEX 01 00:26:47
  TRACK 16 AUDIO
    TITLE "Disc1Track62_16"
    INDEX 01 00:28:13
  TRACK 17 AUDIO
    TITLE "Disc1Track62_17"
    INDEX 01 00:30:45
  TRACK 18 AUDIO
    TITLE "Disc1Track62_18"
    INDEX 01 00:32:10
  TRACK 19 AUDIO
    TITLE "Disc1Track62_19"
    INDEX 01 00:32:51
  TRACK 20 AUDIO
    TITLE "Disc1Track62_20"
    INDEX 01 00:33:74
  TRACK 21 AUDIO
    TITLE "Disc1Track62_21"
    INDEX 01 00:35:46
  TRACK 22 AUDIO
    TITLE "Disc1Track62_22"
    INDEX 01 00:36:71
  TRACK 23 AUDIO
    TITLE "Disc1Track62_23"
    INDEX 01 00:39:08
  TRACK 24 AUDIO
    TITLE "Disc1Track62_24"
    INDEX 01 00:39:48
  TRACK 25 AUDIO
    TITLE "Disc1Track62_25"
    INDEX 01 00:40:65
  TRACK 26 AUDIO
    TITLE "Disc1Track62_26"
    INDEX 01 00:42:44
  TRACK 27 AUDIO
    TITLE "Disc1Track62_27"
    INDEX 01 00:43:61
  TRACK 28 AUDIO
    TITLE "Disc1Track62_28"
    INDEX 01 00:47:61
  TRACK 29 AUDIO
    TITLE "Disc1Track62_29"
    INDEX 01 00:48:19
  TRACK 30 AUDIO
    TITLE "Disc1Track62_30"
    INDEX 01 00:49:52
  TRACK 31 AUDIO
    TITLE "Disc1Track62_31"
    INDEX 01 00:52:07
  TRACK 32 AUDIO
    TITLE "Disc1Track62_32"
    INDEX 01 00:53:40
  TRACK 33 AUDIO
    TITLE "Disc1Track62_33"
    INDEX 01 00:57:59
  TRACK 34 AUDIO
    TITLE "Disc1Track62_34"
    INDEX 01 00:58:18
  TRACK 35 AUDIO
    TITLE "Disc1Track62_35"
    INDEX 01 00:59:44
  TRACK 36 AUDIO
    TITLE "Disc1Track62_36"
    INDEX 01 01:01:51
  TRACK 37 AUDIO
    TITLE "Disc1Track62_37"
    INDEX 01 01:03:03
  TRACK 38 AUDIO
    TITLE "Disc1Track62_38"
    INDEX 01 01:08:37
  TRACK 39 AUDIO
    TITLE "Disc1Track62_39"
    INDEX 01 01:08:69
  TRACK 40 AUDIO
    TITLE "Disc1Track62_40"
    INDEX 01 01:10:13
  TRACK 41 AUDIO
    TITLE "Disc1Track62_41"
    INDEX 01 01:12:27
  TRACK 42 AUDIO
    TITLE "Disc1Track62_42"
    INDEX 01 01:13:45
  TRACK 43 AUDIO
    TITLE "Disc1Track62_43"
    INDEX 01 01:15:61
